<svg width="26" height="30" viewBox="0 0 26 30" fill="none" xmlns="http://www.w3.org/2000/svg">
<path d="M14.4545 17.3214L13.1956 18.5714L11.9366 17.3214L11.4098 16.7857H1.58841V27.5C1.58841 27.9736 1.77655 28.4278 2.11144 28.7627C2.44632 29.0976 2.90053 29.2857 3.37413 29.2857H23.017C23.4906 29.2857 23.9448 29.0976 24.2797 28.7627C24.6146 28.4278 24.8027 27.9736 24.8027 27.5V16.7857H14.9813L14.4545 17.3214ZM16.767 20.3571C16.767 20.5939 16.6729 20.821 16.5055 20.9885C16.338 21.1559 16.1109 21.25 15.8741 21.25H10.517C10.2802 21.25 10.0531 21.1559 9.88564 20.9885C9.7182 20.821 9.62413 20.5939 9.62413 20.3571C9.62413 20.1203 9.7182 19.8932 9.88564 19.7258C10.0531 19.5583 10.2802 19.4643 10.517 19.4643H15.8741C16.1109 19.4643 16.338 19.5583 16.5055 19.7258C16.6729 19.8932 16.767 20.1203 16.767 20.3571Z" fill="#BDBDBD"/>
<path d="M24.3563 9.64285H20.9277C20.9277 9.64285 20.9277 9.72321 20.9277 9.75892C20.9271 10.4691 20.6445 11.1499 20.142 11.6518L16.767 15H25.6956V10.9821C25.6956 10.6269 25.5545 10.2863 25.3033 10.0351C25.0521 9.78395 24.7115 9.64285 24.3563 9.64285Z" fill="#BDBDBD"/>
<path d="M6.23127 11.6518C5.7288 11.1499 5.44618 10.4691 5.44556 9.75892C5.44556 9.75892 5.44556 9.67857 5.44556 9.64285H2.03484C1.67964 9.64285 1.33899 9.78395 1.08782 10.0351C0.836659 10.2863 0.695557 10.6269 0.695557 10.9821V15H9.62413L6.23127 11.6518Z" fill="#BDBDBD"/>
<path d="M13.1956 16.0536L18.892 10.3839C18.9953 10.3086 19.0813 10.212 19.144 10.1005C19.2067 9.98912 19.2448 9.86553 19.2557 9.73812C19.2665 9.61072 19.2498 9.48247 19.2068 9.36205C19.1638 9.24164 19.0954 9.13187 19.0063 9.04017C18.9172 8.94847 18.8094 8.87699 18.6903 8.83054C18.5712 8.7841 18.4434 8.7638 18.3158 8.77099C18.1881 8.77819 18.0635 8.81272 17.9503 8.87225C17.8371 8.93179 17.7381 9.01493 17.6598 9.11607L14.0884 12.6429V1.60714C14.0884 1.37034 13.9943 1.14323 13.8269 0.975791C13.6595 0.808348 13.4324 0.714279 13.1956 0.714279C12.9588 0.714279 12.7317 0.808348 12.5642 0.975791C12.3968 1.14323 12.3027 1.37034 12.3027 1.60714V12.6786L8.73127 9.15178C8.56314 8.98483 8.33558 8.89152 8.09865 8.89235C7.86172 8.89319 7.63482 8.98812 7.46788 9.15624C7.30093 9.32437 7.20762 9.55193 7.20845 9.78886C7.20929 10.0258 7.30421 10.2527 7.47234 10.4196L13.1956 16.0536Z" fill="#BDBDBD"/>
</svg>
