<svg width="75" height="75" viewBox="0 0 75 75" fill="none" xmlns="http://www.w3.org/2000/svg">
<path fill-rule="evenodd" clip-rule="evenodd" d="M4.6312 7.29324C9.34786 2.32732 11.0181 0.934363 13.0261 0.290979C14.4179 -0.074563 15.8779 -0.0960492 17.2798 0.228516C19.1252 0.76571 19.6069 1.17173 25.6622 7.18706C30.9792 12.4716 31.5046 13.0462 32.0176 14.0581C33.0103 15.8795 33.1699 18.039 32.4555 19.9857C31.93 21.4536 31.1543 22.4281 27.933 25.6637L25.8311 27.7688C25.2782 28.3291 25.147 29.1805 25.5059 29.8801C30.1716 37.8293 36.7899 44.4593 44.735 49.1441C45.6515 49.6351 46.7806 49.4758 47.525 48.7506L49.5455 46.7642C50.7941 45.4849 52.1166 44.2794 53.5053 43.1538C55.6834 41.8083 58.4027 41.6784 60.6991 42.8102C61.8189 43.3349 62.1942 43.6785 67.6803 49.1379C73.3102 54.7597 73.4916 54.9408 74.1235 56.2338C75.3032 58.3757 75.2913 60.9742 74.0922 63.1049C73.4666 64.3042 73.1163 64.7415 69.9385 67.9834C68.0181 69.9448 66.1852 71.7313 65.9225 71.9936C63.2983 74.1599 59.9341 75.2236 56.5392 74.9607C50.3287 74.3935 44.3184 72.4746 38.9299 69.3389C26.9873 63.0206 16.821 53.814 9.36037 42.5604C7.72918 40.2098 6.2779 37.74 5.01904 35.1708C1.6644 29.4285 -0.0693162 22.8859 0.00212177 16.2382C0.254344 12.7496 1.92738 9.51673 4.6312 7.29324Z" fill="#BDBDBD"/>
<path d="M54.2142 9.49851C52.959 9.49853 51.9414 10.5146 51.9414 11.768C51.9414 13.0214 52.9589 14.0374 54.2141 14.0374L54.2142 9.49851ZM62.785 14.0374C64.0402 14.0374 65.0578 13.0213 65.0578 11.7679C65.0578 10.5146 64.0403 9.49849 62.7851 9.49851L62.785 14.0374ZM62.7851 9.49851C61.5299 9.49853 60.5123 10.5146 60.5123 11.768C60.5123 13.0214 61.5298 14.0374 62.785 14.0374L62.7851 9.49851ZM71.3559 14.0374C72.6111 14.0374 73.6287 13.0213 73.6287 11.7679C73.6287 10.5146 72.6112 9.49849 71.356 9.49851L71.3559 14.0374ZM65.0578 11.7679C65.0578 10.5146 64.0403 9.49849 62.7851 9.49851C61.5299 9.49853 60.5123 10.5146 60.5123 11.768L65.0578 11.7679ZM60.5123 20.3265C60.5123 21.5799 61.5298 22.5959 62.785 22.5959C64.0402 22.5959 65.0578 21.5798 65.0578 20.3264L60.5123 20.3265ZM60.5123 11.768C60.5123 13.0214 61.5298 14.0374 62.785 14.0374C64.0402 14.0374 65.0578 13.0213 65.0578 11.7679L60.5123 11.768ZM65.0578 3.20943C65.0578 1.95606 64.0403 0.940001 62.7851 0.940022C61.5299 0.940043 60.5123 1.95615 60.5123 3.20952L65.0578 3.20943ZM54.2141 14.0374L62.785 14.0374L62.7851 9.49851L54.2142 9.49851L54.2141 14.0374ZM62.785 14.0374L71.3559 14.0374L71.356 9.49851L62.7851 9.49851L62.785 14.0374ZM60.5123 11.768L60.5123 20.3265L65.0578 20.3264L65.0578 11.7679L60.5123 11.768ZM65.0578 11.7679L65.0578 3.20943L60.5123 3.20952L60.5123 11.768L65.0578 11.7679Z" fill="#00C843"/>
</svg>
