<svg width="13" height="50" viewBox="0 0 13 50" fill="none" xmlns="http://www.w3.org/2000/svg">
<path d="M0 44.3282V42.9601C0.0305801 42.8491 0.0804749 42.7493 0.101398 42.6382C0.544004 39.7605 2.9373 37.4879 5.74422 37.2964C8.8827 37.0759 11.5383 38.8656 12.4026 41.782C12.5137 42.1651 12.5942 42.5674 12.6939 42.9585V44.3266C12.6634 44.4167 12.6135 44.4972 12.6038 44.5986C12.1709 47.2542 10.2604 49.2757 7.64501 49.8487C7.44383 49.8889 7.24264 49.9501 7.04146 50H5.67341C5.58328 49.9694 5.49153 49.9195 5.4014 49.9099C2.786 49.4882 0.795082 47.626 0.191528 45.0412C0.131978 44.7901 0.0611601 44.56 0 44.3282ZM12.6956 5.66214V7.03019C12.665 7.14125 12.6151 7.24103 12.6054 7.35209C12.1532 10.2491 9.7486 12.5121 6.91109 12.6939C3.78227 12.8951 1.13629 11.0845 0.281659 8.15683C0.170605 7.78504 0.0901307 7.40198 0 7.03019V5.66214C0.0305801 5.57201 0.0804749 5.49153 0.101398 5.4014C0.584241 2.786 2.10359 1.07513 4.63851 0.260735C4.97006 0.149681 5.32254 0.0901307 5.66375 0H7.0318C7.12193 0.0305801 7.21367 0.0804739 7.30381 0.0901307C9.92886 0.52308 11.9117 2.37398 12.5153 4.9588C12.5765 5.20022 12.6344 5.43198 12.6956 5.66214ZM12.6939 24.3111V25.6792C12.6634 25.7902 12.6135 25.89 12.5925 26.0011C12.1403 28.8885 9.64559 31.2126 6.82901 31.3333C3.65995 31.4733 0.975343 29.5629 0.220498 26.6159C0.140025 26.3037 0.0692075 25.993 0 25.6808V24.3128C0.0305801 24.2017 0.0804749 24.1019 0.101398 23.9909C0.544004 21.1035 3.04835 18.7794 5.86493 18.649C9.03399 18.4977 11.7186 20.4194 12.4734 23.3664C12.5539 23.6883 12.6247 24.0005 12.6939 24.3128V24.3111Z" fill="black"/>
</svg>
