<svg width="26" height="26" viewBox="0 0 26 26" fill="none" xmlns="http://www.w3.org/2000/svg">
<g clip-path="url(#clip0_16_90)">
<path fill-rule="evenodd" clip-rule="evenodd" d="M2.23626 2.93581C3.80948 1.26727 4.36487 0.812014 5.03706 0.597484C5.50106 0.475203 5.98785 0.467859 6.45534 0.57603C7.07032 0.757188 7.23241 0.890673 9.24899 2.90005C11.02 4.66396 11.1964 4.85704 11.3681 5.20028C11.693 5.80669 11.7433 6.52321 11.5064 7.16919C11.3323 7.66022 11.0725 7.98439 9.99984 9.07611L9.29904 9.79121C9.10997 9.98 9.06645 10.2703 9.19178 10.5063C10.7491 13.1629 12.9585 15.378 15.6111 16.9422C15.9164 17.1052 16.2923 17.0523 16.5407 16.8111L17.2153 16.1484C17.6315 15.721 18.0724 15.3184 18.5358 14.9423C19.2559 14.4863 20.1603 14.4331 20.929 14.8017C21.3032 14.9781 21.4272 15.0901 23.2555 16.9136C25.1409 18.7919 25.1934 18.8515 25.4008 19.2829C25.7938 19.9942 25.7938 20.8576 25.4008 21.5689C25.1981 21.9693 25.0742 22.1147 24.0159 23.1969C23.3746 23.85 22.774 24.4531 22.6786 24.5365C21.8019 25.2631 20.6766 25.6189 19.5417 25.5281C17.4703 25.3393 15.4657 24.6989 13.6684 23.6522C9.68741 21.5422 6.29873 18.4682 3.81186 14.7111C3.26817 13.9264 2.7845 13.1016 2.36498 12.244C1.24678 10.3242 0.670125 8.13695 0.696417 5.91538C0.781466 4.75358 1.33779 3.67712 2.23626 2.93581Z" fill="#BDBDBD"/>
<path d="M20.1871 0.5C19.6757 0.5 19.2611 0.914551 19.2611 1.42592C19.2611 1.93728 19.6757 2.35183 20.1871 2.35183V0.5ZM24.7697 2.35183C25.2811 2.35183 25.6956 1.93728 25.6956 1.42592C25.6956 0.914551 25.2811 0.5 24.7697 0.5V2.35183ZM25.6956 1.42592C25.6956 0.914551 25.2811 0.5 24.7697 0.5C24.2584 0.5 23.8438 0.914551 23.8438 1.42592H25.6956ZM23.8438 5.74686C23.8438 6.25822 24.2584 6.67277 24.7697 6.67277C25.2811 6.67277 25.6956 6.25822 25.6956 5.74686H23.8438ZM25.4244 2.08064C25.786 1.71905 25.786 1.13278 25.4244 0.771194C25.0628 0.409606 24.4765 0.409606 24.1149 0.771194L25.4244 2.08064ZM17.6335 7.25264C17.2719 7.61424 17.2719 8.20041 17.6335 8.56201C17.9951 8.92361 18.5814 8.92361 18.943 8.56201L17.6335 7.25264ZM20.1871 2.35183H24.7697V0.5H20.1871V2.35183ZM23.8438 1.42592V5.74686H25.6956V1.42592H23.8438ZM24.1149 0.771194L17.6335 7.25264L18.943 8.56201L25.4244 2.08064L24.1149 0.771194Z" fill="#C81E00"/>
</g>
<defs>
<clipPath id="clip0_16_90">
<rect width="25" height="25" fill="white" transform="translate(0.695557 0.5)"/>
</clipPath>
</defs>
</svg>
