<svg width="50" height="50" viewBox="0 0 50 50" fill="none" xmlns="http://www.w3.org/2000/svg">
<path fill-rule="evenodd" clip-rule="evenodd" d="M3.08747 4.86216C6.23191 1.55155 7.34539 0.622909 8.68407 0.193986C9.61193 -0.0497086 10.5853 -0.0640328 11.5199 0.152344C12.7502 0.510474 13.0713 0.781154 17.1082 4.79137C20.6528 8.31437 21.0031 8.69748 21.3451 9.3721C22.0069 10.5863 22.1132 12.026 21.637 13.3238C21.2867 14.3024 20.7696 14.952 18.622 17.1092L17.2208 18.5125C16.8521 18.8861 16.7647 19.4537 17.0039 19.9201C20.1144 25.2195 24.5266 29.6395 29.8234 32.7627C30.4343 33.0901 31.1871 32.9839 31.6833 32.5004L33.0304 31.1761C33.8628 30.3233 34.7444 29.5196 35.6702 28.7692C37.1223 27.8722 38.9351 27.7856 40.4661 28.5401C41.2126 28.8899 41.4628 29.119 45.1202 32.7586C48.8735 36.5064 48.9944 36.6272 49.4156 37.4892C50.2022 38.9171 50.1942 40.6495 49.3948 42.0699C48.9777 42.8695 48.7442 43.161 46.6257 45.3223C45.3454 46.6298 44.1235 47.8208 43.9483 47.9957C42.1989 49.4399 39.956 50.1491 37.6928 49.9738C33.5525 49.5957 29.5456 48.3164 25.9533 46.2259C17.9916 42.0137 11.214 35.876 6.24025 28.3736C5.15279 26.8065 4.18527 25.16 3.34603 23.4472C1.1096 19.619 -0.0462108 15.2573 0.00141451 10.8254C0.169563 8.49976 1.28492 6.34448 3.08747 4.86216Z" fill="white"/>
</svg>
