<svg width="26" height="30" viewBox="0 0 26 30" fill="none" xmlns="http://www.w3.org/2000/svg">
<path d="M13.1956 17.7768C12.8211 17.7748 12.4512 17.6943 12.1098 17.5405C11.7684 17.3867 11.463 17.163 11.2134 16.8839H1.58841V27.5982C1.58841 28.0718 1.77655 28.526 2.11144 28.8609C2.44632 29.1958 2.90053 29.3839 3.37413 29.3839H23.017C23.4906 29.3839 23.9448 29.1958 24.2797 28.8609C24.6146 28.526 24.8027 28.0718 24.8027 27.5982V16.8839H15.1688C14.9202 17.1619 14.6162 17.3849 14.2764 17.5387C13.9366 17.6924 13.5685 17.7735 13.1956 17.7768ZM16.767 20.4554C16.767 20.6922 16.6729 20.9193 16.5055 21.0867C16.338 21.2541 16.1109 21.3482 15.8741 21.3482H10.517C10.2802 21.3482 10.0531 21.2541 9.88564 21.0867C9.7182 20.9193 9.62413 20.6922 9.62413 20.4554C9.62413 20.2186 9.7182 19.9915 9.88564 19.824C10.0531 19.6566 10.2802 19.5625 10.517 19.5625H15.8741C16.1109 19.5625 16.338 19.6566 16.5055 19.824C16.6729 19.9915 16.767 20.2186 16.767 20.4554Z" fill="#BDBDBD"/>
<path d="M10.517 9.74107H2.03484C1.67964 9.74107 1.33899 9.88218 1.08782 10.1333C0.836659 10.3845 0.695557 10.7252 0.695557 11.0804V15.0982H10.517V9.74107Z" fill="#BDBDBD"/>
<path d="M24.3563 9.74107H15.8741V15.0982H25.6956V11.0804C25.6956 10.7252 25.5545 10.3845 25.3033 10.1333C25.0521 9.88218 24.7115 9.74107 24.3563 9.74107Z" fill="#BDBDBD"/>
<path d="M8.73127 7.55357L12.3027 4.02679V15.0982C12.3027 15.335 12.3968 15.5621 12.5642 15.7296C12.7317 15.897 12.9588 15.9911 13.1956 15.9911C13.4324 15.9911 13.6595 15.897 13.8269 15.7296C13.9943 15.5621 14.0884 15.335 14.0884 15.0982V4.02679L17.6598 7.55357C17.7431 7.63624 17.8418 7.70169 17.9504 7.7462C18.0589 7.79072 18.1751 7.81341 18.2925 7.813C18.4098 7.81258 18.5259 7.78907 18.6341 7.74379C18.7423 7.69851 18.8406 7.63236 18.9232 7.54911C19.0059 7.46586 19.0714 7.36715 19.1159 7.2586C19.1604 7.15006 19.1831 7.03381 19.1827 6.91649C19.1822 6.79917 19.1587 6.68309 19.1135 6.57486C19.0682 6.46663 19.002 6.36838 18.9188 6.28572L13.1956 0.616074L7.4902 6.28572C7.35193 6.45588 7.28111 6.67097 7.29123 6.89C7.30135 7.10902 7.39171 7.31666 7.54508 7.47335C7.69846 7.63003 7.90413 7.7248 8.12288 7.7396C8.34164 7.75439 8.55819 7.68818 8.73127 7.55357Z" fill="#BDBDBD"/>
</svg>
